 http://img845.imageshack.us/img845/9858/kungfupanda2posters.jpg

Country.......: USA
Genre.........: Animation, Action, Adventure, Comedy, Family
Date release..: 26.05.2011 [World]
Director......: Jennifer Yuh
Writers.......: Jonathan Aibel, Glenn Berger
Duration......: 81 min.
More..........: http://www.imdb.com/title/tt1302011
Trailer.......: http://www.imdb.com/video/imdb/vi1639488793
Trailer.......:

Pilot :
Po joins forces with a group of new kung-fu masters to take on an old enemy with a deadly new weapon. 

Cats :
Jack Black   	 ...  	Po (voice)
Angelina Jolie 	... 	Tigress (voice)
Dustin Hoffman 	... 	Shifu (voice)
Gary Oldman 	... 	Shen (voice)
Jackie Chan 	... 	Monkey (voice)
Seth Rogen 	... 	Mantis (voice)
Lucy Liu 	... 	Viper (voice)
David Cross 	... 	Crane (voice)
James Hong 	... 	Mr. Ping (voice)
Michelle Yeoh 	... 	Soothsayer (voice)
Danny McBride 	... 	Wolf Boss (voice)
Dennis Haysbert 	... 	Master Ox (voice)
Jean Claude Van Damme 	... 	Master Croc (voice)
Victor Garber 	... 	Master Rhino (voice)
Mike Bell 	... 	Gorilla Guard #1 (voice) (as Michael Patrick Bell) 

Data Technical :
!!! SAMPLE !!!
Audio.....: English
Subtitles.: None
Format                           : AVI
Format/Info                      : Audio Video Interleave
File size                        : 1.37 GiB
Duration                         : 1h 20mn
Overall bit rate                 : 2 421 Kbps
Writing application              : VirtualDubMod 1.5.10.2 (build 2540/release)
Writing library                  : VirtualDubMod build 2540/release
Video
ID                               : 0
Format                           : MPEG-4 Visual
Format profile                   : Advanced Simple@L5
Format settings, BVOP            : Yes
Format settings, QPel            : No
Format settings, GMC             : No warppoints
Format settings, Matrix          : Default (H.263)
Muxing mode                      : Packed bitstream
Codec ID                         : XVID
Codec ID/Hint                    : XviD
Duration                         : 1h 20mn
Bit rate                         : 2 220 Kbps
Width                            : 672 pixels
Height                           : 352 pixels
Display aspect ratio             : 1.909
Frame rate                       : 25.000 fps
Color space                      : YUV
Chroma subsampling               : 4:2:0
Bit depth                        : 8 bits
Scan type                        : Progressive
Bits/(Pixel*Frame)               : 0.375
Stream size                      : 1.26 GiB (92%)
Writing library                  : XviD 58
Audio
ID                               : 1
Format                           : AC-3
Format/Info                      : Audio Coding 3
Mode extension                   : CM (complete main)
Codec ID                         : 2000
Duration                         : 1h 20mn
Bit rate mode                    : Constant
Bit rate                         : 192 Kbps
Channel(s)                       : 2 channels
Channel positions                : Front: L R
Sampling rate                    : 48.0 KHz
Bit depth                        : 16 bits
Stream size                      : 111 MiB (8%)
Alignment                        : Split accross interleaves
Interleave, duration             : 40 ms (1.00 video frame)
Interleave, preload duration     : 500 ms

Screen : 
http://img196.imageshack.us/img196/4628/kungfupanda22011s1.jpg 
http://img580.imageshack.us/img580/6827/kungfupanda22011s2.jpg 
http://img846.imageshack.us/img846/9551/kungfupanda22011s3.jpg 
http://img844.imageshack.us/img844/7347/kungfupanda22011s4.jpg 
http://img715.imageshack.us/img715/7500/kungfupanda22011s5.jpg